<svg width="465" height="161" xmlns="http://www.w3.org/2000/svg" xmlns:xlink="http://www.w3.org/1999/xlink" overflow="hidden"><defs><clipPath id="clip0"><rect x="384" y="219" width="465" height="161"/></clipPath><radialGradient cx="2210580" cy="763953" r="2343492" fx="-3924.25" fy="-2809.75" gradientUnits="userSpaceOnUse" spreadMethod="pad" id="fill1" gradientTransform="matrix(0.000104987 9.09495e-13 -9.09495e-13 0.000104987 384.393 219.275)"><stop offset="0" stop-color="#F9CE2F"/><stop offset="0.21" stop-color="#F9CE2F"/><stop offset="0.82" stop-color="#C00000"/><stop offset="1" stop-color="#C00000"/></radialGradient><radialGradient cx="2210580" cy="763953" r="2343492" fx="-3924.25" fy="-2809.75" gradientUnits="userSpaceOnUse" spreadMethod="pad" id="fill2" gradientTransform="matrix(0.000104987 0 0 0.000104987 384.393 219.275)"><stop offset="0" stop-color="#F9CE2F"/><stop offset="0.21" stop-color="#F9CE2F"/><stop offset="0.82" stop-color="#C00000"/><stop offset="1" stop-color="#C00000"/></radialGradient><radialGradient cx="2210580" cy="763953" r="2343492" fx="-3924.25" fy="-2809.75" gradientUnits="userSpaceOnUse" spreadMethod="pad" id="fill3" gradientTransform="matrix(0.000104987 0 0 0.000104987 384.393 219.275)"><stop offset="0" stop-color="#F9CE2F"/><stop offset="0.21" stop-color="#F9CE2F"/><stop offset="0.82" stop-color="#C00000"/><stop offset="1" stop-color="#C00000"/></radialGradient><radialGradient cx="2210580" cy="763953" r="2343492" fx="-3924.25" fy="-2809.75" gradientUnits="userSpaceOnUse" spreadMethod="pad" id="fill4" gradientTransform="matrix(0.000104987 0 0 -0.000104987 -245.607 105.725)"><stop offset="0" stop-color="#F9CE2F"/><stop offset="0.21" stop-color="#F9CE2F"/><stop offset="0.82" stop-color="#C00000"/><stop offset="1" stop-color="#C00000"/></radialGradient><radialGradient cx="2210580" cy="763953" r="2343492" fx="-3924.25" fy="-2809.75" gradientUnits="userSpaceOnUse" spreadMethod="pad" id="fill5" gradientTransform="matrix(0.000104987 0 0 0.000104987 384.393 219.275)"><stop offset="0" stop-color="#F9CE2F"/><stop offset="0.21" stop-color="#F9CE2F"/><stop offset="0.82" stop-color="#C00000"/><stop offset="1" stop-color="#C00000"/></radialGradient><radialGradient cx="2210580" cy="763953" r="2343492" fx="-3924.25" fy="-2809.75" gradientUnits="userSpaceOnUse" spreadMethod="pad" id="fill6" gradientTransform="matrix(0.000104987 0 0 -0.000104987 -161.607 130.725)"><stop offset="0" stop-color="#F9CE2F"/><stop offset="0.21" stop-color="#F9CE2F"/><stop offset="0.82" stop-color="#C00000"/><stop offset="1" stop-color="#C00000"/></radialGradient></defs><g clip-path="url(#clip0)" transform="translate(-384 -219)"><path d="M773.304 228.577C777.739 227.15 782.382 228.71 786.894 227.926 789.882 227.702 792.805 226.883 795.797 226.75 797.747 227.297 798.673 229.591 799.856 231.061 800.434 233.844 800.388 236.793 799.176 239.406 796.11 246.548 791.681 253.274 785.509 258.116 783.335 259.542 781.465 261.416 780.048 263.594 777.849 267.078 774.923 270.026 772.494 273.333 771.827 275.068 772.658 277.114 771.789 278.837 770.923 281.875 768.372 284.004 767.273 286.923 764.823 292.401 759.32 296.34 758.56 302.566 760.872 303.422 763.169 304.698 765.721 304.446 768.441 303.013 770.604 300.648 773.474 299.461 776.634 297.841 780.756 297.108 782.439 293.607 783.006 290.776 783.43 287.9 784.556 285.215 785.754 280.654 785.413 275.824 786.681 271.271 788.075 272.351 789.826 273.298 790.149 275.232 791.067 277.694 792.834 279.682 794.438 281.714 795.335 283.292 794.457 286.025 796.712 286.684 799.108 286.825 800.432 284.488 802.165 283.235 804.098 281.202 807.123 280.976 809.232 279.173 810.7 278.055 812.385 277.295 813.937 276.312 816.216 274.567 818.346 272.631 820.661 270.931 821.424 271.795 822.191 272.662 822.962 273.529 822.55 274.804 822.183 276.093 821.745 277.363 819.297 280.533 816.163 283.088 813.546 286.119 809.707 290.615 804.617 293.761 800.382 297.846 798.432 299.511 797.144 302.177 797.804 304.768 798.657 312.419 797.687 320.114 797.498 327.775 797.381 329.809 796.586 331.714 795.989 333.643 795.097 336.669 793.803 339.984 790.808 341.499 788.159 342.954 785.68 345.212 782.507 345.284 778.383 345.178 774.559 343.53 770.547 342.824 770.339 342.361 770.136 341.901 769.933 341.444 772.203 339.39 774.841 337.764 776.991 335.578 778.67 332.933 780.315 330.222 781.628 327.372 782.628 323.272 781.867 318.981 782.414 314.826 782.716 313.076 781.944 311.385 781.545 309.709 779.01 311.177 776.094 313.261 773.056 311.892 768.408 312.108 763.76 313.039 759.107 312.129 755.778 311.995 753.501 309.085 751.671 306.661 750.495 304.078 750.542 301.191 749.904 298.471 751.543 294.587 754.043 291.047 755.171 286.941 756.523 282.465 759.614 278.93 762.273 275.216 764.369 269.849 767.87 265.189 771.333 260.637 773.92 256.803 778.919 255.237 780.794 250.825 781.291 248.077 780.772 245.224 780.482 242.478 780.162 240.869 778.365 240.366 777.186 239.542 773.451 237.467 770.518 233.832 769.77 229.573 770.986 229.388 772.126 228.911 773.304 228.577Z" fill="url(#fill1)" fill-rule="evenodd"/><path d="M815.198 314.394C821.917 313.141 829.349 314.675 834.733 318.953 837.385 320.689 840.594 321.464 843.004 323.593 845.986 327.702 845.938 332.988 848.026 337.487 848.529 338.893 849.521 340.532 848.574 341.978 846.998 344.179 844.955 345.999 843.109 347.971 841.347 347.558 839.562 347.208 837.913 346.433 833.629 344.364 828.494 344.541 824.633 341.528 823.162 340.375 821.095 339.644 820.288 337.849 821.336 334.76 824.029 332.004 822.856 328.429 821.562 326.437 820.091 324.545 818.33 322.946 816.617 321.58 814.331 320.709 813.384 318.584 812.272 316.993 813.566 314.928 815.198 314.394Z" fill="url(#fill2)" fill-rule="evenodd"/><path d="M761.688 323.986C763.159 323.867 764.581 323.429 765.983 322.977 766.317 323.25 766.653 323.523 766.992 323.799 765.874 326.924 764.851 330.093 764.193 333.363 763.84 334.603 763.733 335.974 762.962 337.035 759.575 339.566 755.71 341.645 751.456 341.825 748.741 342.53 746.311 340.667 744.731 338.585 743.222 336.924 742.913 334.586 742.016 332.581 740.77 329.808 739.044 327.285 737.992 324.41 745.893 324.387 753.791 324.219 761.688 323.986Z" fill="url(#fill3)" fill-rule="evenodd"/><path d="M45.321 85.4266C43.0461 83.6028 43.0461 81.2684 45.3943 81.2684 47.6692 81.2684 48.0361 80.1742 48.0361 72.5875L48.0361 66.2409 44.2202 64.8549C39.2301 63.1041 37.2487 61.864 36.8085 60.1133 36.5149 59.019 37.3955 58.2895 40.9913 56.5388 43.4863 55.2986 45.9814 54.2773 46.6419 54.2773 47.3757 54.2773 47.6692 53.6208 47.5959 52.3077 47.5224 51.1405 47.4491 49.5356 47.3757 48.5873 47.3023 46.5447 43.1194 44.5021 40.4043 45.2316 38.5696 45.6694 33.3594 43.8456 33.3594 42.7514 33.3594 42.3137 33.7997 41.876 34.3868 41.6571 34.9738 41.4383 35.6343 39.9063 35.9278 38.2286 36.2947 36.2589 37.0286 34.8729 38.2762 34.0704 39.8905 32.9762 40.2575 32.9762 42.6792 34.1434 44.0734 34.8 45.4678 35.2376 45.6145 35.0188 45.8346 34.8 45.7612 33.4869 45.5411 32.0279 45.1008 29.6935 44.8073 29.4747 42.6057 29.4747 38.2027 29.4747 31.5248 27.9427 28.2959 26.119 26.5348 25.1706 24.9203 24.5141 24.7001 24.733 23.8195 25.5354 24.7001 37.572 26.0944 43.6268 26.7549 46.5447 27.5621 48.2225 28.7362 48.952 30.6442 50.1921 30.9378 52.8913 29.3233 54.2773 27.7089 55.5904 28.0024 57.8518 30.424 62.2288 31.8917 64.9278 32.4055 66.4598 31.9651 67.3352 31.5982 67.9917 31.3047 69.4507 31.3047 70.5449 31.378 72.9523 29.6169 74.4842 26.0944 75.1407 23.5994 75.6513 21.985 74.5572 22.7188 72.7334 22.8655 72.2227 22.7188 71.6392 22.4252 71.4933 22.0583 71.2744 21.5446 69.3778 21.3245 67.2623 21.031 65.1467 20.2971 61.4992 19.6366 59.2378 18.6093 55.5904 18.0223 54.788 14.6466 52.5265 12.5918 51.0676 10.0968 49.098 9.14281 48.0766 7.45502 46.3259 7.45502 46.3259 6.42758 47.7119 4.88657 49.9004 4.29946 49.5356 2.31812 45.3775-0.470451 39.3957-0.764005 35.7482 1.21744 32.5385 3.27212 29.2558 5.40024 27.3591 7.16147 27.2861 8.99604 27.2861 12.812 29.9853 13.5458 31.9549 14.1329 33.4139 14.2063 33.4139 14.3531 31.6631 14.4264 30.6418 14.4264 28.5263 14.3531 26.8485 14.2797 25.2436 14.5732 22.3257 15.0135 20.3561 15.5272 18.1675 15.5272 16.6357 15.1603 16.4897 14.4264 16.2708 15.0869 12.1128 16.1143 10.5079 16.4812 9.99728 16.628 8.24649 16.628 6.6416 16.4812 4.38017 16.9215 3.43182 18.6093 1.97284 22.7922-1.67456 27.8557-0.142676 27.0484 4.59908 26.6816 6.34978 26.7549 6.34978 27.6355 5.18262 29.0298 3.28592 36.0746 3.1401 38.7898 4.96381 41.3582 6.56869 46.3483 14.3742 47.4491 18.3864 47.9628 20.0642 48.77 21.4502 49.2837 21.4502 50.9715 21.4502 63.887 16.8545 71.152 13.6447 81.0588 9.26775 81.6458 8.97593 91.3325 4.38017 100.505-0.0696744 102.927-0.653305 101.606 1.68112 101.239 2.48347 100.872 3.94245 100.872 4.8908 100.872 8.31939 95.5153 13.1341 87.3697 17.0004 76.8026 22.0339 67.9231 25.3895 59.0437 27.651 54.7875 28.7451 51.0449 29.9124 50.678 30.2041 50.3844 30.5689 50.311 32.3926 50.6046 34.3622 51.0449 37.9367 51.1182 38.0096 55.5947 39.9794 58.0897 41.0735 61.2452 42.0949 62.7128 42.2407 66.2353 42.6055 67.2626 43.1161 68.8037 45.2316 70.1246 46.9824 70.1246 47.1283 68.9504 48.4414 68.2166 49.2439 67.0425 50.0463 66.3086 50.2651 65.5014 50.5569 64.9144 51.0676 64.9144 51.5053 64.9144 51.9429 65.1345 52.1618 65.3546 51.9429 65.7216 51.5053 66.4554 52.0888 70.198 55.5174 72.4729 57.6329 72.0326 62.8123 69.3174 65.0737 66.9691 66.9705 63.0798 68.1376 58.7502 68.1376L54.2738 68.1376 54.4939 76.0891C54.714 83.384 54.6407 84.1864 53.2464 85.5724 51.3384 87.4691 47.8893 87.3962 45.321 85.4266ZM55.3011 53.4749C52.7327 48.7331 51.9989 48.8061 52.7327 53.8396 53.0996 56.3199 53.6133 57.0494 55.2277 57.6329 56.3285 58.0707 57.3558 58.2895 57.4293 58.2166 57.576 58.1436 56.622 56.028 55.3011 53.4749ZM40.6244 23.6387 43.5597 22.9092 42.5324 20.0642C41.0647 15.8332 38.7898 11.7481 37.1754 10.2891 35.7077 8.97593 28.0758 7.44404 26.9017 8.24649 25.7276 9.04893 25.1404 11.5292 24.8469 17.0004 24.7001 19.9183 24.4067 22.6175 24.1864 22.9092 23.9663 23.274 24.4067 23.3469 25.0671 23.201 25.8009 23.0551 27.4153 23.1281 28.5895 23.4928 31.9651 24.4412 37.3955 24.5141 40.6244 23.6387Z" fill="url(#fill4)" fill-rule="evenodd" transform="matrix(1 0 0 -1 630 325)"/><path d="M422.316 218.98C427.779 219.163 433.373 219.578 438.476 221.699 442.899 223.52 447.956 223.952 451.831 226.972 453.077 227.946 453.275 229.682 454.412 230.741 455.286 231.444 456.402 230.855 457.361 230.686 459.406 230.055 461.412 231.253 463.178 232.151 465.637 233.739 468.358 234.811 471.041 235.941 470.272 237.58 470.132 239.389 470.859 241.074 469.342 241.477 467.826 241.862 466.322 242.294 467.462 242.569 468.696 242.895 469.862 243.192 469.866 243.759 469.87 244.327 469.875 244.894 466.224 247.024 462.333 248.689 458.324 249.997 453.778 251.712 448.358 251.568 444.691 255.172 441.966 259.31 442.659 264.532 440.631 268.961 443.537 268.695 445.747 266.467 447.403 264.231 449.3 261.648 451.902 259.619 453.356 256.71 454.315 255.371 454.805 253.131 456.693 252.805 461.096 251.996 465.701 252.119 469.904 253.771 471.7 256.938 473.529 261.931 470.318 264.79 468.937 266.683 466.558 267.284 464.708 268.542 463.664 269.546 463.195 270.99 462.498 272.235 464.805 272.451 466.461 273.98 468.062 275.441 472.604 270.304 477.34 265.336 481.336 259.746 485.781 255.147 489.917 250.273 494.099 245.428 498.371 241.299 501.531 236.242 505.451 231.808 506.951 229.822 509.723 229.949 511.751 228.768 512.118 229.051 512.486 229.339 512.858 229.627 511.894 231.465 510.901 233.303 510.301 235.302 512.807 233.824 514.543 231.486 515.046 228.615 516.499 229.869 518.531 230.775 519.148 232.723 519.634 234.353 519.697 236.073 519.926 237.754 517.344 239.448 513.876 240.007 511.945 242.59 509.832 245.131 507.686 247.643 505.68 250.268 503.352 253.33 499.782 255.062 497.099 257.751 494.463 260.902 490.492 262.579 488.29 266.154 489.659 266.53 491.041 266.946 492.405 267.356 492.355 269.753 492.726 272.332 491.484 274.492 489.879 277.465 489.739 280.862 489.659 284.173 492.046 284.978 494.416 285.846 496.816 286.617 498.616 284.817 500.775 283.343 502.372 281.349 502.929 278.63 502.773 275.767 503.157 273.006 503.381 272.112 504.243 271.507 505.109 271.329 508.54 270.977 511.996 271.384 515.43 271.341 518.438 269.588 520.187 266.298 523.077 264.417 526.537 266.556 530.648 266.615 534.632 266.577 535.388 269.906 534.801 273.239 533.952 276.478 529.186 277.707 523.474 279.142 521.265 284.093 519.342 289.929 520.627 296.222 519.921 302.231 519.026 308.219 518.95 314.322 517.522 320.221 517.484 323.664 518.582 326.993 518.721 330.427 519.055 336.767 519.072 343.132 518.768 349.476 518.629 352.724 517.408 355.824 517.31 359.077 517.56 361.923 517.986 364.836 519.119 367.488 519.626 368.69 521.218 368.398 522.287 368.813 522.57 371.324 523.449 374.001 522.524 376.474 522.114 377.656 521.607 378.799 521.193 379.981 519.533 378.837 517.585 378.227 515.553 378.778 512.824 370.147 513.001 360.957 512.836 352.009 511.67 342.019 510.09 332.028 510.39 321.932 510.644 317.155 508.274 312.742 508.392 307.982 507.843 303.053 509.579 297.552 506.685 293.113 506.127 291.944 504.742 289.708 503.216 290.979 499.904 294.82 494.704 296.387 491.518 300.389 488.818 304.51 490.158 309.71 489.621 314.318 489.642 319.192 487.454 324.731 482.671 326.671 478.717 327.366 474.539 326.688 470.817 325.252 472.173 323.495 473.63 321.822 475.037 320.107 473.301 319.285 471.636 318.227 469.718 317.896 465.646 317.9 464.137 313.577 460.994 311.802 459.068 310.892 457.01 311.802 455.181 312.467 455.189 316.35 457.297 319.65 458.611 323.156 459.837 326.328 462.207 329.119 462.422 332.634 461.759 335.035 459.82 337.034 457.242 337.297 454.737 337.8 451.928 339.621 449.46 338.182 446.795 336.454 445.16 333.642 443.389 331.084 441.07 329.254 438.185 328.272 435.422 327.327 435.046 327.7 434.674 328.077 434.302 328.454 434.509 331.249 434.627 334.07 435.176 336.831 435.878 339.427 433.977 341.739 433.182 344.06 431.256 344.17 429.325 344.886 427.39 344.589 425.569 343.082 423.609 341.561 422.388 339.503 420.859 333.629 425.045 328.581 425.286 322.881 419.587 325.506 415.476 330.571 409.862 333.32 407.648 334.324 405.7 335.988 403.284 336.483 398.484 337.258 393.596 337.343 388.75 337.153 387.01 336.992 385.569 335.819 383.981 335.221 384.581 333.502 384.526 331.236 385.992 329.919 389.207 328.818 392.743 328.645 395.645 326.718 398.239 325.041 401.188 323.948 403.567 321.945 406.566 319.48 408.915 316.283 412.113 314.055 418.235 310.15 425.658 309.515 432.185 306.576 435.882 304.776 439.101 302.18 442.473 299.86 442.173 297.945 442.278 295.904 441.412 294.134 439.786 292.656 438.256 294.862 436.943 295.688 429.604 301.427 419.612 299.368 411.15 301.596 410.343 300.402 409.545 299.199 408.746 298 410.669 296.446 412.95 295.434 414.855 293.863 416.803 292.47 418.159 290.42 420.132 289.065 422.185 287.582 424.251 286.126 426.313 284.656 426.368 280.324 426.14 275.966 426.676 271.663 428.037 267.776 428.962 263.752 429.908 259.746 427.876 258.518 425.844 257.29 423.85 255.994 423.44 256.528 423.03 257.061 422.625 257.595 420.622 255.316 418.784 252.89 416.583 250.794 419.067 245.445 424.615 242.514 430.217 241.659 429.646 240.409 428.945 239.143 427.648 238.512 424.277 236.06 420.609 233.985 416.731 232.456 415.954 229.835 414.75 227.37 413.892 224.774 413.161 222.932 414.788 221.301 415.257 219.616 419.22 219.899 422.325 222.572 426.055 223.546 424.834 222.004 423.503 220.552 422.316 218.98M445.189 241.697C445.662 242.51 446.161 243.314 446.668 244.115 447.061 243.564 447.458 243.014 447.851 242.468 447.462 241.981 447.082 241.498 446.698 241.011 446.195 241.239 445.692 241.468 445.189 241.697M468.193 284.148C470.242 284.881 472.308 285.592 474.336 286.392 472.963 289.272 472.088 292.495 470.094 295.023 467.538 296.103 464.501 296.129 462.321 298.039 465.105 299.195 468.007 300.037 470.931 300.757 473.267 301.685 475.303 303.447 477.885 303.705 477.906 299.601 477.728 295.498 477.669 291.394 477.657 289.348 478.299 287.345 478.206 285.3 477.843 283.076 477.488 280.845 477.238 278.609 476.034 279.062 474.847 279.545 473.664 280.04 473.74 279.282 473.82 278.528 473.905 277.774 472.16 280.036 470.166 282.086 468.193 284.148M510.568 291.436C511.59 290.615 512.604 289.78 513.614 288.938 512.739 288.417 511.865 287.896 510.994 287.371 509.896 288.557 509.537 290.064 510.568 291.436M485.603 294.634C486.951 294.752 488.278 294.833 489.638 294.934 489.313 294.155 489 293.376 488.7 292.592 491.129 291.877 493.588 290.928 496.165 291.068 495.671 290.577 495.173 290.09 494.678 289.607 491.362 290.721 487.982 291.919 485.603 294.634M434.627 315.643C435.506 317.913 436.359 320.187 437.293 322.44 439.629 322.076 441.966 321.703 444.298 321.322 443.622 318.819 443.74 316.185 444.547 313.733 441.003 312.586 437.724 314.174 434.627 315.643Z" fill="url(#fill5)" fill-rule="evenodd"/><path d="M44.4954 113.175C41.6961 111.459 38.8119 109.4 38.1333 108.799 35.7581 106.568 32.2802 104.681 31.8561 105.367 31.6016 105.796 30.6685 108.284 29.6505 110.944 28.6326 113.604 27.5298 115.835 27.1057 115.835 26.3422 115.835 22.6946 108.37 20.6587 102.536 18.7925 97.4736 19.8104 93.5269 23.8822 89.3227 28.2933 84.8611 30.7533 84.1747 33.7222 86.4912 34.9946 87.435 35.9277 88.7221 35.8429 89.3227 35.6733 90.0091 36.8608 92.0683 38.4726 93.87 40.4236 96.3582 41.6112 97.1303 42.714 96.7014 43.9016 96.1865 44.0713 95.5002 43.6471 93.3552 43.3078 91.8108 42.8837 90.2665 42.714 89.9233 42.5444 89.6659 36.5215 86.4055 29.4809 82.8019 16.7566 76.2811 16.587 76.1954 14.2118 77.5682 11.9214 78.9409 11.8366 78.9409 11.3276 76.8817 10.4793 73.364 11.2428 71.8196 15.06 69.2456 17.0959 67.8729 18.9622 66.2426 19.2166 65.5563 19.4711 64.9557 18.538 62.1243 17.1808 59.3788 15.3994 55.7752 14.8904 53.8875 15.3994 52.6864 16.3325 50.713 22.1008 47.1952 24.476 47.1952 27.6147 47.1952 27.1905 45.5651 23.5429 43.6775 21.507 42.6479 16.7566 39.5591 13.0242 36.8136 7.00145 32.4377 5.72895 31.8371 3.01446 32.1804-0.717926 32.6952-0.887627 31.5798 1.74206 25.9171 3.60826 22.1418 6.06825 20.5117 10.14 20.4259 13.3635 20.3401 14.2966 20.7691 17.6897 23.7721 19.3863 25.2306 20.9132 26.4318 21.1677 26.4318 21.507 26.2602 24.476 28.92 33.2132 37.071 34.6553 38.4437 36.1822 39.2159 36.6912 38.8728 37.1153 38.6153 37.285 38.7869 37.0305 39.2159 36.6912 39.7307 37.0305 40.4171 37.7091 40.6745 38.8119 41.1035 38.9816 39.4734 38.8119 28.062L38.5574 15.0206 42.205 7.55601C45.9375-0.25173 47.6341-1.62446 50.0941 1.46429 50.7727 2.23642 51.1968 2.92289 51.112 2.92289 49.9244 3.60926 48.9065 10.4732 48.652 20.1685 48.4823 26.7751 48.143 35.6124 47.8885 39.8165 47.4644 45.0503 47.6341 47.1952 48.2279 46.852 48.7368 46.5089 50.0092 46.852 51.0272 47.5384 52.13 48.139 56.6259 49.5976 61.0368 50.713 65.5327 51.8284 69.4349 53.2869 69.9438 54.0592 71.3011 56.2042 71.3011 58.3491 69.9438 58.864 69.2652 59.2071 68.8411 59.722 69.0955 60.0651 69.35 60.4941 67.9928 61.0089 66.2114 61.3521 64.3452 61.6953 62.3941 62.4675 61.8003 63.1539 61.2913 63.8403 60.1038 64.3551 59.1707 64.3551 57.8135 64.3551 57.559 63.9261 57.8135 62.2101 58.2376 60.3226 57.8135 59.9794 53.1479 58.3491 50.3486 57.4053 47.8885 56.8048 47.6341 56.9764 46.9554 57.7485 49.0761 79.6274 50.5182 85.4617 52.2148 92.6688 51.7906 95.0712 48.3127 97.3877 45.8527 99.1038 44.9195 101.249 46.7009 101.249 47.1251 101.249 47.3796 101.592 47.1251 102.021 46.8706 102.45 47.2947 103.308 48.0582 103.909 49.2458 104.938 49.4155 104.938 48.8217 103.823 48.4823 103.136 48.9065 103.394 49.6699 104.509 50.4334 105.539 51.9603 106.397 53.0631 106.397 54.081 106.397 55.6079 106.997 56.2866 107.77 59.0859 110.515 57.3045 113.861 52.13 115.577 49.9244 116.349 48.9913 116.006 44.4954 113.175ZM41.7809 72.0771C41.1871 69.932 40.254 68.9882 37.7091 67.9587 35.8429 67.1864 31.1774 64.6983 27.2753 62.3817 23.3732 60.0651 20.0649 58.3491 19.8953 58.5208 19.7256 58.6065 20.1498 60.0651 20.7436 61.6095 21.6767 63.6687 22.4401 64.3551 24.1367 64.3551 26.5119 64.3551 31.7712 68.9024 31.0078 70.2753 30.7533 70.6185 31.2623 71.648 32.1954 72.506 33.1285 73.364 33.8919 74.5652 33.8919 75.1658 33.8919 75.6806 35.6733 77.5682 37.9636 79.1983L41.9506 82.2871 42.205 78.512C42.3747 76.4528 42.1202 73.5356 41.7809 72.0771ZM40.3388 55.4319C39.9147 53.2012 39.0664 52.3432 36.0126 50.7988 33.8919 49.7692 32.0257 48.9112 31.7712 48.9112 31.0926 48.9112 35.2491 55.4319 37.7091 58.1776 40.5085 61.2663 41.2719 60.4941 40.3388 55.4319ZM50.0092 48.9112C49.3306 48.4822 48.3975 48.0532 47.8885 48.0532 47.4644 48.0532 47.6341 48.4822 48.3127 48.9112 48.9913 49.3402 50.0092 49.7692 50.4334 49.7692 50.9424 49.7692 50.6879 49.3402 50.0092 48.9112ZM38.1333 45.4793C36.9457 44.5354 35.6733 43.7633 35.1643 43.7633 34.7401 43.7633 35.2491 44.5354 36.4367 45.4793 37.6243 46.4231 38.9816 47.1952 39.4057 47.1952 39.9147 47.1952 39.3209 46.4231 38.1333 45.4793Z" fill="url(#fill6)" fill-rule="evenodd" transform="matrix(1 0 0 -1 546 350)"/></g></svg>